<mxfile host="app.diagrams.net" modified="2024-04-03T02:01:40.270Z" agent="Mozilla/5.0 (Windows NT 10.0; Win64; x64) AppleWebKit/537.36 (KHTML, like Gecko) Chrome/124.0.0.0 Safari/537.36 Edg/124.0.0.0" version="24.0.2" etag="PA4w8_ALg5gyZNB3J3IG" type="github">
  <diagram name="第 1 页" id="-eCTGpnfhD38gk9BBDDt">
    <mxGraphModel>
      <root>
        <mxCell id="0" />
        <mxCell id="1" parent="0" />
      </root>
    </mxGraphModel>
  </diagram>
</mxfile>
